# xmcd CD database file
#
# Track frame offsets:
#	150
#	11024
#	22910
#	35630
#	46871
#	60157
#	74008
#	85177
#	97149
#	110131
#	123402
#	135655
#	147913
#	160980
#	175225
#	188360
#
# Disc length: 2657 seconds
#
# Revision: 0
# Processed by: cddbd v1.4PL0 Copyright (c) Steve Scherf et al.
# Submitted via: CDex 1.50Beta7
#
DISCID=d80a5f10
DTITLE=Duke Ellington - Cotton Club Stomp Disc-2
DYEAR=1900
DGENRE=Jazz
TTITLE0=You Gave Me The Gate
TTITLE1=Watermelon Man
TTITLE2=The Stevedore's Serenade
TTITLE3=La De Doody Doo
TTITLE4=Love In Swingtime
TTITLE5=Please Forgive Me
TTITLE6=Lambeth Walk
TTITLE7=Mighty Like The Blues
TTITLE8=TT On Toast
TTITLE9=Lady In Blue
TTITLE10=Smorgasboard And Schnapps
TTITLE11=Sold Old Man
TTITLE12=Cotton Club Stomp
TTITLE13=In A Mizz
TTITLE14=You Can Count On Me
TTITLE15=Killin' Myself
EXTD=
EXTT0=
EXTT1=
EXTT2=
EXTT3=
EXTT4=
EXTT5=
EXTT6=
EXTT7=
EXTT8=
EXTT9=
EXTT10=
EXTT11=
EXTT12=
EXTT13=
EXTT14=
EXTT15=
PLAYORDER=
